<mxfile host="Electron" modified="2024-04-22T20:32:03.021Z" agent="Mozilla/5.0 (Windows NT 10.0; Win64; x64) AppleWebKit/537.36 (KHTML, like Gecko) draw.io/24.0.4 Chrome/120.0.6099.109 Electron/28.1.0 Safari/537.36" etag="3wALWkjIXW5t194GpaX1" version="24.0.4" type="device">
  <diagram name="Página-1" id="2B79RSk6jgvxgmXU9Ig3">
    <mxGraphModel dx="1114" dy="656" grid="1" gridSize="10" guides="1" tooltips="1" connect="1" arrows="1" fold="1" page="1" pageScale="1" pageWidth="100000000" pageHeight="1000000000000" math="0" shadow="0">
      <root>
        <mxCell id="0" />
        <mxCell id="1" parent="0" />
        <mxCell id="rhO1CwY7Jy7VaBYDxE07-9" value="" style="rounded=0;whiteSpace=wrap;html=1;" parent="1" vertex="1">
          <mxGeometry x="220" y="260" width="1010" height="1920" as="geometry" />
        </mxCell>
        <mxCell id="rhO1CwY7Jy7VaBYDxE07-15" value="&lt;b&gt;&lt;font style=&quot;font-size: 20px;&quot;&gt;Gabriel Henrique Garces de Deus&lt;/font&gt;&lt;/b&gt;" style="rounded=0;whiteSpace=wrap;html=1;" parent="1" vertex="1">
          <mxGeometry x="390" y="470" width="440" height="40" as="geometry" />
        </mxCell>
        <mxCell id="rhO1CwY7Jy7VaBYDxE07-17" value="Sobre mim" style="rounded=0;whiteSpace=wrap;html=1;" parent="1" vertex="1">
          <mxGeometry x="390" y="540" width="630" height="170" as="geometry" />
        </mxCell>
        <mxCell id="J-3hdwi9G3d5iy-5qDj6-2" value="Sobre" style="rounded=0;whiteSpace=wrap;html=1;" vertex="1" parent="1">
          <mxGeometry x="250" y="270" width="110" height="30" as="geometry" />
        </mxCell>
        <mxCell id="J-3hdwi9G3d5iy-5qDj6-6" value="Experiência" style="rounded=0;whiteSpace=wrap;html=1;" vertex="1" parent="1">
          <mxGeometry x="390" y="270" width="110" height="30" as="geometry" />
        </mxCell>
        <mxCell id="J-3hdwi9G3d5iy-5qDj6-7" value="Tecnologias" style="rounded=0;whiteSpace=wrap;html=1;" vertex="1" parent="1">
          <mxGeometry x="520" y="270" width="110" height="30" as="geometry" />
        </mxCell>
        <mxCell id="J-3hdwi9G3d5iy-5qDj6-8" value="Contatos" style="rounded=0;whiteSpace=wrap;html=1;" vertex="1" parent="1">
          <mxGeometry x="660" y="270" width="110" height="30" as="geometry" />
        </mxCell>
        <mxCell id="J-3hdwi9G3d5iy-5qDj6-10" value="&lt;b&gt;&lt;font style=&quot;font-size: 20px;&quot;&gt;Experiências&lt;/font&gt;&lt;/b&gt;" style="rounded=0;whiteSpace=wrap;html=1;" vertex="1" parent="1">
          <mxGeometry x="485" y="860" width="440" height="40" as="geometry" />
        </mxCell>
        <mxCell id="J-3hdwi9G3d5iy-5qDj6-11" value="Experiências" style="rounded=0;whiteSpace=wrap;html=1;" vertex="1" parent="1">
          <mxGeometry x="380" y="930" width="630" height="360" as="geometry" />
        </mxCell>
        <mxCell id="J-3hdwi9G3d5iy-5qDj6-13" value="&lt;b&gt;&lt;font style=&quot;font-size: 20px;&quot;&gt;Tecnologias&lt;/font&gt;&lt;/b&gt;" style="rounded=0;whiteSpace=wrap;html=1;" vertex="1" parent="1">
          <mxGeometry x="485" y="1360" width="440" height="40" as="geometry" />
        </mxCell>
        <mxCell id="J-3hdwi9G3d5iy-5qDj6-14" value="Tecnologias" style="rounded=0;whiteSpace=wrap;html=1;" vertex="1" parent="1">
          <mxGeometry x="380" y="1420" width="630" height="170" as="geometry" />
        </mxCell>
        <mxCell id="J-3hdwi9G3d5iy-5qDj6-15" value="&lt;b&gt;&lt;font style=&quot;font-size: 20px;&quot;&gt;Formularios&lt;/font&gt;&lt;/b&gt;" style="rounded=0;whiteSpace=wrap;html=1;" vertex="1" parent="1">
          <mxGeometry x="495" y="1650" width="440" height="40" as="geometry" />
        </mxCell>
        <mxCell id="J-3hdwi9G3d5iy-5qDj6-16" value="Tecnologias" style="rounded=0;whiteSpace=wrap;html=1;" vertex="1" parent="1">
          <mxGeometry x="380" y="1740" width="630" height="170" as="geometry" />
        </mxCell>
      </root>
    </mxGraphModel>
  </diagram>
</mxfile>
